<svg id="Layer_1" data-name="Layer 1" xmlns="http://www.w3.org/2000/svg" xmlns:xlink="http://www.w3.org/1999/xlink" viewBox="0 0 100 100"><defs><style>.cls-1{fill:#003458;}.cls-2{clip-path:url(#clip-path);}.cls-3{fill:#fff;}</style><clipPath id="clip-path" transform="translate(0 0)"><path class="cls-1" d="M50,0a50,50,0,1,0,50,50A50,50,0,0,0,50,0Z"/></clipPath></defs><title>avatar</title><path class="cls-1" d="M50,0a50,50,0,1,0,50,50A50,50,0,0,0,50,0Z" transform="translate(0 0)"/><g class="cls-2"><path class="cls-3" d="M60.65,47.42h-2.8a16.13,16.13,0,0,1-14.85,0H40.2A12.47,12.47,0,0,0,27.74,59.88V76H73.11V59.88A12.47,12.47,0,0,0,60.65,47.42Z" transform="translate(0 0)"/><path class="cls-3" d="M63.52,33.05a13.1,13.1,0,1,0-13.1,13.09A13.12,13.12,0,0,0,63.52,33.05Z" transform="translate(0 0)"/><path class="cls-3" d="M60.65,47.42h-2.8a16.13,16.13,0,0,1-14.85,0H40.2A12.47,12.47,0,0,0,27.74,59.88V76H73.11V59.88A12.47,12.47,0,0,0,60.65,47.42Z" transform="translate(0 0)"/><path class="cls-3" d="M63.52,33.05a13.1,13.1,0,1,0-13.1,13.09A13.12,13.12,0,0,0,63.52,33.05Z" transform="translate(0 0)"/></g></svg>